# xmcd CD database file
#
# Track frame offsets:
#	150
#	24372
#	56158
#	88378
#	110359
#	144239
#	171696
#	214151
#	240593
#
# Disc length: 3500 seconds
#
# Revision: 0
# Processed by: cddbd v1.5.1PL2 Copyright (c) Steve Scherf et al.
# Submitted via: CDex 1.51
#
DISCID=800daa09
DTITLE=Jessica Williams - Now!!!
DYEAR=2004
DGENRE=Jazz
TTITLE0=Tadd's Delight
TTITLE1=Bill's Beauty
TTITLE2=Slow Burn
TTITLE3=Angelica
TTITLE4=Nobody's Blues
TTITLE5=In A Sentimental Mood
TTITLE6=Out And Out Blues
TTITLE7=Cheesecake
TTITLE8=Bessie's Blues
EXTD=YEAR: 2004
EXTT0=
EXTT1=
EXTT2=
EXTT3=
EXTT4=
EXTT5=
EXTT6=
EXTT7=
EXTT8=
PLAYORDER=
